<svg width="401" height="229" viewBox="0 0 401 229" fill="none" xmlns="http://www.w3.org/2000/svg">
<path fill-rule="evenodd" clip-rule="evenodd" d="M83.386 81.3843L92.8433 68.0506C97.1304 62.0062 104.409 58.9914 111.605 60.2798C117.177 61.2771 120.911 66.7068 119.944 72.4073C119.864 72.879 119.753 73.3446 119.611 73.8008C112.176 97.6443 110.075 113.3 113.309 120.768C125.1 105.425 184.642 5.94662 204.324 0.668299C210.895 -1.09396 217.626 2.93098 219.358 9.65859C219.944 11.9346 219.896 14.3322 219.218 16.5795C202.306 72.6579 195.478 106.455 198.734 117.97C208.161 103.389 222.23 83.7191 240.941 58.9598C247.969 49.6596 259.525 45.2145 270.811 47.4693C280.736 49.452 287.224 59.2908 285.303 69.4449C285.29 69.5115 285.278 69.5782 285.263 69.645C279.429 98.7605 277.471 115.747 279.389 120.605C280.144 119.975 280.91 119.33 281.688 118.669C290.4 111.268 301.487 107.434 312.81 107.91L400.663 111.6L342.824 120.273C326.678 122.694 312.105 131.484 302.223 144.765L288.904 162.664C284.544 168.524 277.657 171.829 270.46 171.512C263.31 171.198 257.237 166.039 255.619 158.904C251.644 141.377 250.413 120.575 251.928 96.4983C235.374 123.734 221.512 162.575 210.343 213.023C208.423 221.697 201.025 227.945 192.337 228.232C184.04 228.506 177.02 221.984 176.485 213.505L168.423 85.7188L133.738 161.888C130.128 169.814 121.757 174.257 113.338 172.713C104.418 171.078 96.8836 164.986 93.2631 156.482L88.7447 145.87C82.3511 130.853 68.6943 120.392 52.8193 118.351C35.3615 116.106 17.9036 113.861 0.445864 111.617L39.0328 107.54C56.7844 105.665 72.9092 96.1561 83.386 81.3843Z" fill="white"/>
</svg>
